<mxfile host="app.diagrams.net" modified="2023-12-17T17:08:29.061Z" agent="Mozilla/5.0 (Windows NT 10.0; Win64; x64) AppleWebKit/537.36 (KHTML, like Gecko) Chrome/120.0.0.0 Safari/537.36 Edg/120.0.0.0" etag="cph64K40Ii7Qnbv5keAJ" version="22.1.11" type="github">
  <diagram id="C5RBs43oDa-KdzZeNtuy" name="Page-1">
    <mxGraphModel dx="1194" dy="639" grid="1" gridSize="1" guides="1" tooltips="1" connect="1" arrows="1" fold="1" page="1" pageScale="1" pageWidth="2339" pageHeight="3300" math="0" shadow="0">
      <root>
        <mxCell id="WIyWlLk6GJQsqaUBKTNV-0" />
        <mxCell id="WIyWlLk6GJQsqaUBKTNV-1" parent="WIyWlLk6GJQsqaUBKTNV-0" />
        <mxCell id="u2uPQxLEzmJWIRdmgsjw-0" value="" style="rounded=0;html=1;jettySize=auto;orthogonalLoop=1;fontSize=11;endArrow=classicThin;endFill=1;endSize=8;strokeWidth=1;shadow=0;labelBackgroundColor=none;edgeStyle=orthogonalEdgeStyle;movable=1;resizable=1;rotatable=1;deletable=1;editable=1;locked=0;connectable=1;" parent="WIyWlLk6GJQsqaUBKTNV-1" source="u2uPQxLEzmJWIRdmgsjw-1" edge="1">
          <mxGeometry relative="1" as="geometry">
            <mxPoint x="72.50999999999999" y="127" as="targetPoint" />
          </mxGeometry>
        </mxCell>
        <mxCell id="u2uPQxLEzmJWIRdmgsjw-1" value="开始" style="rounded=1;whiteSpace=wrap;html=1;fontSize=12;glass=0;strokeWidth=1;shadow=0;fillColor=#eeeeee;strokeColor=#36393d;" parent="WIyWlLk6GJQsqaUBKTNV-1" vertex="1">
          <mxGeometry x="12.509999999999991" y="47" width="120" height="40" as="geometry" />
        </mxCell>
        <mxCell id="u2uPQxLEzmJWIRdmgsjw-5" value="" style="rounded=0;html=1;jettySize=auto;orthogonalLoop=1;fontSize=11;endArrow=classicThin;endFill=1;endSize=8;strokeWidth=1;shadow=0;labelBackgroundColor=none;edgeStyle=orthogonalEdgeStyle;movable=1;resizable=1;rotatable=1;deletable=1;editable=1;locked=0;connectable=1;exitX=0.5;exitY=1;exitDx=0;exitDy=0;entryX=0.5;entryY=0;entryDx=0;entryDy=0;" parent="WIyWlLk6GJQsqaUBKTNV-1" edge="1" target="u2uPQxLEzmJWIRdmgsjw-53" source="u2uPQxLEzmJWIRdmgsjw-8">
          <mxGeometry relative="1" as="geometry">
            <mxPoint x="72.50999999999999" y="200" as="sourcePoint" />
            <mxPoint x="72.50999999999999" y="250" as="targetPoint" />
          </mxGeometry>
        </mxCell>
        <mxCell id="u2uPQxLEzmJWIRdmgsjw-32" value="" style="edgeStyle=orthogonalEdgeStyle;rounded=0;orthogonalLoop=1;jettySize=auto;html=1;entryX=0;entryY=0.5;entryDx=0;entryDy=0;endArrow=classicThin;endFill=1;endSize=8;" parent="WIyWlLk6GJQsqaUBKTNV-1" source="u2uPQxLEzmJWIRdmgsjw-8" target="u2uPQxLEzmJWIRdmgsjw-40" edge="1">
          <mxGeometry relative="1" as="geometry">
            <mxPoint x="561" y="163" as="targetPoint" />
          </mxGeometry>
        </mxCell>
        <mxCell id="u2uPQxLEzmJWIRdmgsjw-8" value="&lt;font style=&quot;font-size: 12px;&quot;&gt;是否为Trot&lt;br&gt;步态？&lt;/font&gt;" style="rhombus;whiteSpace=wrap;html=1;shadow=0;fontFamily=Helvetica;fontSize=12;align=center;strokeWidth=1;spacing=6;spacingTop=-4;fillColor=#d5e8d4;strokeColor=#82b366;" parent="WIyWlLk6GJQsqaUBKTNV-1" vertex="1">
          <mxGeometry x="22.379999999999995" y="128" width="100.25" height="70" as="geometry" />
        </mxCell>
        <mxCell id="u2uPQxLEzmJWIRdmgsjw-15" value="&lt;font style=&quot;font-size: 10px;&quot;&gt;N&lt;/font&gt;" style="text;html=1;strokeColor=none;fillColor=default;align=center;verticalAlign=middle;whiteSpace=wrap;rounded=0;" parent="WIyWlLk6GJQsqaUBKTNV-1" vertex="1">
          <mxGeometry x="338.01" y="159" width="20" height="10" as="geometry" />
        </mxCell>
        <mxCell id="u2uPQxLEzmJWIRdmgsjw-20" value="&lt;font style=&quot;font-size: 10px;&quot;&gt;Y&lt;/font&gt;" style="text;html=1;strokeColor=none;fillColor=default;align=center;verticalAlign=middle;whiteSpace=wrap;rounded=0;" parent="WIyWlLk6GJQsqaUBKTNV-1" vertex="1">
          <mxGeometry x="63" y="212" width="20" height="10" as="geometry" />
        </mxCell>
        <mxCell id="u2uPQxLEzmJWIRdmgsjw-40" value="&lt;font style=&quot;font-size: 12px;&quot;&gt;是否为walk&lt;br&gt;步态？&lt;/font&gt;" style="rhombus;whiteSpace=wrap;html=1;shadow=0;fontFamily=Helvetica;fontSize=12;align=center;strokeWidth=1;spacing=6;spacingTop=-4;fillColor=#d5e8d4;strokeColor=#82b366;" parent="WIyWlLk6GJQsqaUBKTNV-1" vertex="1">
          <mxGeometry x="535.88" y="129" width="100.25" height="70" as="geometry" />
        </mxCell>
        <mxCell id="u2uPQxLEzmJWIRdmgsjw-45" value="" style="edgeStyle=orthogonalEdgeStyle;rounded=0;orthogonalLoop=1;jettySize=auto;html=1;entryX=0;entryY=0.5;entryDx=0;entryDy=0;exitX=1;exitY=0.5;exitDx=0;exitDy=0;endSize=8;endArrow=classicThin;endFill=1;" parent="WIyWlLk6GJQsqaUBKTNV-1" target="u2uPQxLEzmJWIRdmgsjw-49" edge="1" source="u2uPQxLEzmJWIRdmgsjw-40">
          <mxGeometry relative="1" as="geometry">
            <mxPoint x="634" y="163" as="sourcePoint" />
            <mxPoint x="721" y="163" as="targetPoint" />
          </mxGeometry>
        </mxCell>
        <mxCell id="u2uPQxLEzmJWIRdmgsjw-46" value="&lt;font style=&quot;font-size: 10px;&quot;&gt;N&lt;/font&gt;" style="text;html=1;strokeColor=none;fillColor=default;align=center;verticalAlign=middle;whiteSpace=wrap;rounded=0;" parent="WIyWlLk6GJQsqaUBKTNV-1" vertex="1">
          <mxGeometry x="671" y="159" width="20" height="10" as="geometry" />
        </mxCell>
        <mxCell id="u2uPQxLEzmJWIRdmgsjw-52" value="" style="edgeStyle=orthogonalEdgeStyle;rounded=0;orthogonalLoop=1;jettySize=auto;html=1;endSize=8;endArrow=classicThin;endFill=1;" parent="WIyWlLk6GJQsqaUBKTNV-1" source="u2uPQxLEzmJWIRdmgsjw-49" target="u2uPQxLEzmJWIRdmgsjw-51" edge="1">
          <mxGeometry relative="1" as="geometry" />
        </mxCell>
        <mxCell id="u2uPQxLEzmJWIRdmgsjw-49" value="待拓展" style="rhombus;whiteSpace=wrap;html=1;shadow=0;fontFamily=Helvetica;fontSize=12;align=center;strokeWidth=1;spacing=6;spacingTop=-4;fillColor=#d5e8d4;strokeColor=#82b366;" parent="WIyWlLk6GJQsqaUBKTNV-1" vertex="1">
          <mxGeometry x="882.38" y="129" width="100.25" height="70" as="geometry" />
        </mxCell>
        <mxCell id="u2uPQxLEzmJWIRdmgsjw-51" value="待拓展" style="rounded=0;whiteSpace=wrap;html=1;fillColor=#dae8fc;strokeColor=#6c8ebf;" parent="WIyWlLk6GJQsqaUBKTNV-1" vertex="1">
          <mxGeometry x="870.0000000000001" y="378" width="125" height="40" as="geometry" />
        </mxCell>
        <mxCell id="u2uPQxLEzmJWIRdmgsjw-55" value="" style="edgeStyle=orthogonalEdgeStyle;rounded=0;orthogonalLoop=1;jettySize=auto;html=1;endArrow=classicThin;endFill=1;endSize=8;" parent="WIyWlLk6GJQsqaUBKTNV-1" source="u2uPQxLEzmJWIRdmgsjw-53" target="u2uPQxLEzmJWIRdmgsjw-54" edge="1">
          <mxGeometry relative="1" as="geometry" />
        </mxCell>
        <mxCell id="u2uPQxLEzmJWIRdmgsjw-58" value="" style="edgeStyle=orthogonalEdgeStyle;rounded=0;orthogonalLoop=1;jettySize=auto;html=1;endArrow=classicThin;endFill=1;endSize=8;" parent="WIyWlLk6GJQsqaUBKTNV-1" source="u2uPQxLEzmJWIRdmgsjw-53" target="u2uPQxLEzmJWIRdmgsjw-57" edge="1">
          <mxGeometry relative="1" as="geometry" />
        </mxCell>
        <mxCell id="u2uPQxLEzmJWIRdmgsjw-53" value="&lt;font style=&quot;font-size: 12px;&quot;&gt;运动时间点&lt;br&gt;是否大于1？&lt;/font&gt;" style="rhombus;whiteSpace=wrap;html=1;shadow=0;fontFamily=Helvetica;fontSize=12;align=center;strokeWidth=1;spacing=6;spacingTop=-4;fillColor=#d5e8d4;strokeColor=#82b366;" parent="WIyWlLk6GJQsqaUBKTNV-1" vertex="1">
          <mxGeometry x="22.379999999999995" y="248" width="100.25" height="70" as="geometry" />
        </mxCell>
        <mxCell id="u2uPQxLEzmJWIRdmgsjw-68" value="" style="edgeStyle=orthogonalEdgeStyle;rounded=0;orthogonalLoop=1;jettySize=auto;html=1;endSize=8;endArrow=classicThin;endFill=1;" parent="WIyWlLk6GJQsqaUBKTNV-1" source="u2uPQxLEzmJWIRdmgsjw-54" edge="1">
          <mxGeometry relative="1" as="geometry">
            <mxPoint x="72" y="475" as="targetPoint" />
          </mxGeometry>
        </mxCell>
        <mxCell id="u2uPQxLEzmJWIRdmgsjw-54" value="运动时间点置为0" style="rounded=0;whiteSpace=wrap;html=1;fillColor=#dae8fc;strokeColor=#6c8ebf;" parent="WIyWlLk6GJQsqaUBKTNV-1" vertex="1">
          <mxGeometry x="10" y="378" width="125" height="40" as="geometry" />
        </mxCell>
        <mxCell id="u2uPQxLEzmJWIRdmgsjw-61" value="" style="edgeStyle=orthogonalEdgeStyle;rounded=0;orthogonalLoop=1;jettySize=auto;html=1;endArrow=classicThin;endFill=1;endSize=8;" parent="WIyWlLk6GJQsqaUBKTNV-1" source="u2uPQxLEzmJWIRdmgsjw-57" edge="1">
          <mxGeometry relative="1" as="geometry">
            <mxPoint x="73" y="345" as="targetPoint" />
            <Array as="points">
              <mxPoint x="262" y="345" />
              <mxPoint x="74" y="345" />
            </Array>
          </mxGeometry>
        </mxCell>
        <mxCell id="u2uPQxLEzmJWIRdmgsjw-64" value="" style="edgeStyle=orthogonalEdgeStyle;rounded=0;orthogonalLoop=1;jettySize=auto;html=1;entryX=0.5;entryY=0;entryDx=0;entryDy=0;endSize=8;endArrow=classicThin;endFill=1;" parent="WIyWlLk6GJQsqaUBKTNV-1" source="u2uPQxLEzmJWIRdmgsjw-57" target="u2uPQxLEzmJWIRdmgsjw-66" edge="1">
          <mxGeometry relative="1" as="geometry">
            <mxPoint x="382.0149999999999" y="283" as="targetPoint" />
          </mxGeometry>
        </mxCell>
        <mxCell id="u2uPQxLEzmJWIRdmgsjw-57" value="是否为停止状态" style="rhombus;whiteSpace=wrap;html=1;shadow=0;fontFamily=Helvetica;fontSize=12;align=center;strokeWidth=1;spacing=6;spacingTop=-4;fillColor=#d5e8d4;strokeColor=#82b366;" parent="WIyWlLk6GJQsqaUBKTNV-1" vertex="1">
          <mxGeometry x="211.64" y="248" width="100.25" height="70" as="geometry" />
        </mxCell>
        <mxCell id="u2uPQxLEzmJWIRdmgsjw-59" value="&lt;font style=&quot;font-size: 10px;&quot;&gt;N&lt;/font&gt;" style="text;html=1;strokeColor=none;fillColor=default;align=center;verticalAlign=middle;whiteSpace=wrap;rounded=0;" parent="WIyWlLk6GJQsqaUBKTNV-1" vertex="1">
          <mxGeometry x="156.01" y="277" width="20" height="10" as="geometry" />
        </mxCell>
        <mxCell id="u2uPQxLEzmJWIRdmgsjw-62" value="&lt;font style=&quot;font-size: 10px;&quot;&gt;Y&lt;/font&gt;" style="text;html=1;strokeColor=none;fillColor=default;align=center;verticalAlign=middle;whiteSpace=wrap;rounded=0;" parent="WIyWlLk6GJQsqaUBKTNV-1" vertex="1">
          <mxGeometry x="61.999999999999986" y="333" width="20" height="10" as="geometry" />
        </mxCell>
        <mxCell id="u2uPQxLEzmJWIRdmgsjw-65" value="&lt;font style=&quot;font-size: 10px;&quot;&gt;N&lt;/font&gt;" style="text;html=1;strokeColor=none;fillColor=default;align=center;verticalAlign=middle;whiteSpace=wrap;rounded=0;" parent="WIyWlLk6GJQsqaUBKTNV-1" vertex="1">
          <mxGeometry x="390" y="335" width="20" height="10" as="geometry" />
        </mxCell>
        <mxCell id="u2uPQxLEzmJWIRdmgsjw-70" value="" style="edgeStyle=orthogonalEdgeStyle;rounded=0;orthogonalLoop=1;jettySize=auto;html=1;exitX=0.5;exitY=1;exitDx=0;exitDy=0;endArrow=classicThin;endFill=1;endSize=8;" parent="WIyWlLk6GJQsqaUBKTNV-1" source="u2uPQxLEzmJWIRdmgsjw-66" edge="1">
          <mxGeometry relative="1" as="geometry">
            <mxPoint x="71" y="446" as="targetPoint" />
            <Array as="points">
              <mxPoint x="399" y="446" />
            </Array>
          </mxGeometry>
        </mxCell>
        <mxCell id="u2uPQxLEzmJWIRdmgsjw-66" value="运动时间点按节律增加" style="rounded=0;whiteSpace=wrap;html=1;fillColor=#dae8fc;strokeColor=#6c8ebf;" parent="WIyWlLk6GJQsqaUBKTNV-1" vertex="1">
          <mxGeometry x="337" y="378" width="125" height="40" as="geometry" />
        </mxCell>
        <mxCell id="u2uPQxLEzmJWIRdmgsjw-73" value="" style="edgeStyle=orthogonalEdgeStyle;rounded=0;orthogonalLoop=1;jettySize=auto;html=1;endSize=8;endArrow=classicThin;endFill=1;" parent="WIyWlLk6GJQsqaUBKTNV-1" source="u2uPQxLEzmJWIRdmgsjw-71" target="u2uPQxLEzmJWIRdmgsjw-72" edge="1">
          <mxGeometry relative="1" as="geometry" />
        </mxCell>
        <mxCell id="u2uPQxLEzmJWIRdmgsjw-71" value="获得足端坐标" style="rounded=0;whiteSpace=wrap;html=1;fillColor=#dae8fc;strokeColor=#6c8ebf;" parent="WIyWlLk6GJQsqaUBKTNV-1" vertex="1">
          <mxGeometry x="10.01" y="475" width="125" height="40" as="geometry" />
        </mxCell>
        <mxCell id="u2uPQxLEzmJWIRdmgsjw-72" value="结束" style="rounded=1;whiteSpace=wrap;html=1;fontSize=12;glass=0;strokeWidth=1;shadow=0;fillColor=#eeeeee;strokeColor=#36393d;" parent="WIyWlLk6GJQsqaUBKTNV-1" vertex="1">
          <mxGeometry x="12.499999999999991" y="567" width="120" height="40" as="geometry" />
        </mxCell>
        <mxCell id="u2uPQxLEzmJWIRdmgsjw-74" value="" style="rounded=0;html=1;jettySize=auto;orthogonalLoop=1;fontSize=11;endArrow=classicThin;endFill=1;endSize=8;strokeWidth=1;shadow=0;labelBackgroundColor=none;edgeStyle=orthogonalEdgeStyle;movable=1;resizable=1;rotatable=1;deletable=1;editable=1;locked=0;connectable=1;exitX=0.5;exitY=1;exitDx=0;exitDy=0;entryX=0.5;entryY=0;entryDx=0;entryDy=0;" parent="WIyWlLk6GJQsqaUBKTNV-1" edge="1" target="u2uPQxLEzmJWIRdmgsjw-79" source="u2uPQxLEzmJWIRdmgsjw-40">
          <mxGeometry relative="1" as="geometry">
            <mxPoint x="585.51" y="199" as="sourcePoint" />
            <mxPoint x="585.51" y="249" as="targetPoint" />
          </mxGeometry>
        </mxCell>
        <mxCell id="u2uPQxLEzmJWIRdmgsjw-75" value="&lt;font style=&quot;font-size: 10px;&quot;&gt;Y&lt;/font&gt;" style="text;html=1;strokeColor=none;fillColor=default;align=center;verticalAlign=middle;whiteSpace=wrap;rounded=0;" parent="WIyWlLk6GJQsqaUBKTNV-1" vertex="1">
          <mxGeometry x="577.01" y="217" width="20" height="10" as="geometry" />
        </mxCell>
        <mxCell id="u2uPQxLEzmJWIRdmgsjw-76" value="&lt;font style=&quot;font-size: 10px;&quot;&gt;Y&lt;/font&gt;" style="text;html=1;strokeColor=none;fillColor=default;align=center;verticalAlign=middle;whiteSpace=wrap;rounded=0;" parent="WIyWlLk6GJQsqaUBKTNV-1" vertex="1">
          <mxGeometry x="923" y="218" width="20" height="10" as="geometry" />
        </mxCell>
        <mxCell id="u2uPQxLEzmJWIRdmgsjw-77" value="" style="edgeStyle=orthogonalEdgeStyle;rounded=0;orthogonalLoop=1;jettySize=auto;html=1;" parent="WIyWlLk6GJQsqaUBKTNV-1" source="u2uPQxLEzmJWIRdmgsjw-79" target="u2uPQxLEzmJWIRdmgsjw-81" edge="1">
          <mxGeometry relative="1" as="geometry" />
        </mxCell>
        <mxCell id="u2uPQxLEzmJWIRdmgsjw-78" value="" style="edgeStyle=orthogonalEdgeStyle;rounded=0;orthogonalLoop=1;jettySize=auto;html=1;endArrow=classicThin;endFill=1;endSize=8;" parent="WIyWlLk6GJQsqaUBKTNV-1" source="u2uPQxLEzmJWIRdmgsjw-79" target="u2uPQxLEzmJWIRdmgsjw-85" edge="1">
          <mxGeometry relative="1" as="geometry" />
        </mxCell>
        <mxCell id="u2uPQxLEzmJWIRdmgsjw-79" value="&lt;font style=&quot;font-size: 12px;&quot;&gt;运动时间点&lt;br&gt;是否大于2.5？&lt;/font&gt;" style="rhombus;whiteSpace=wrap;html=1;shadow=0;fontFamily=Helvetica;fontSize=12;align=center;strokeWidth=1;spacing=6;spacingTop=-4;fillColor=#d5e8d4;strokeColor=#82b366;" parent="WIyWlLk6GJQsqaUBKTNV-1" vertex="1">
          <mxGeometry x="535.88" y="248" width="100.25" height="70" as="geometry" />
        </mxCell>
        <mxCell id="u2uPQxLEzmJWIRdmgsjw-80" value="" style="edgeStyle=orthogonalEdgeStyle;rounded=0;orthogonalLoop=1;jettySize=auto;html=1;endArrow=none;endFill=0;exitX=0.5;exitY=1;exitDx=0;exitDy=0;" parent="WIyWlLk6GJQsqaUBKTNV-1" source="u2uPQxLEzmJWIRdmgsjw-81" edge="1">
          <mxGeometry relative="1" as="geometry">
            <mxPoint x="398" y="446" as="targetPoint" />
            <Array as="points">
              <mxPoint x="586" y="446" />
            </Array>
          </mxGeometry>
        </mxCell>
        <mxCell id="u2uPQxLEzmJWIRdmgsjw-81" value="运动时间点置为0" style="rounded=0;whiteSpace=wrap;html=1;fillColor=#dae8fc;strokeColor=#6c8ebf;" parent="WIyWlLk6GJQsqaUBKTNV-1" vertex="1">
          <mxGeometry x="523.51" y="377" width="125" height="40" as="geometry" />
        </mxCell>
        <mxCell id="u2uPQxLEzmJWIRdmgsjw-82" value="&lt;font style=&quot;font-size: 10px;&quot;&gt;Y&lt;/font&gt;" style="text;html=1;strokeColor=none;fillColor=default;align=center;verticalAlign=middle;whiteSpace=wrap;rounded=0;" parent="WIyWlLk6GJQsqaUBKTNV-1" vertex="1">
          <mxGeometry x="576" y="335" width="20" height="10" as="geometry" />
        </mxCell>
        <mxCell id="u2uPQxLEzmJWIRdmgsjw-83" value="" style="edgeStyle=orthogonalEdgeStyle;rounded=0;orthogonalLoop=1;jettySize=auto;html=1;endArrow=classicThin;endFill=1;endSize=8;" parent="WIyWlLk6GJQsqaUBKTNV-1" source="u2uPQxLEzmJWIRdmgsjw-85" edge="1">
          <mxGeometry relative="1" as="geometry">
            <mxPoint x="586" y="357" as="targetPoint" />
            <Array as="points">
              <mxPoint x="775.01" y="357" />
            </Array>
          </mxGeometry>
        </mxCell>
        <mxCell id="u2uPQxLEzmJWIRdmgsjw-85" value="是否为停止状态" style="rhombus;whiteSpace=wrap;html=1;shadow=0;fontFamily=Helvetica;fontSize=12;align=center;strokeWidth=1;spacing=6;spacingTop=-4;fillColor=#d5e8d4;strokeColor=#82b366;" parent="WIyWlLk6GJQsqaUBKTNV-1" vertex="1">
          <mxGeometry x="724.64" y="247" width="100.25" height="70" as="geometry" />
        </mxCell>
        <mxCell id="u2uPQxLEzmJWIRdmgsjw-86" value="&lt;font style=&quot;font-size: 10px;&quot;&gt;N&lt;/font&gt;" style="text;html=1;strokeColor=none;fillColor=default;align=center;verticalAlign=middle;whiteSpace=wrap;rounded=0;" parent="WIyWlLk6GJQsqaUBKTNV-1" vertex="1">
          <mxGeometry x="669.01" y="276" width="20" height="10" as="geometry" />
        </mxCell>
        <mxCell id="u2uPQxLEzmJWIRdmgsjw-87" value="&lt;font style=&quot;font-size: 10px;&quot;&gt;Y&lt;/font&gt;" style="text;html=1;strokeColor=none;fillColor=default;align=center;verticalAlign=middle;whiteSpace=wrap;rounded=0;" parent="WIyWlLk6GJQsqaUBKTNV-1" vertex="1">
          <mxGeometry x="668.01" y="352" width="20" height="10" as="geometry" />
        </mxCell>
        <mxCell id="bipDlKxJ-qfAYTKsooVI-2" value="&lt;font style=&quot;font-size: 10px;&quot;&gt;Y&lt;/font&gt;" style="text;html=1;strokeColor=none;fillColor=default;align=center;verticalAlign=middle;whiteSpace=wrap;rounded=0;" parent="WIyWlLk6GJQsqaUBKTNV-1" vertex="1">
          <mxGeometry x="154" y="340" width="20" height="10" as="geometry" />
        </mxCell>
      </root>
    </mxGraphModel>
  </diagram>
</mxfile>
